<?xml version="1.0" encoding="utf-8"?>
<svg width="437px" height="432px" viewbox="0 0 437 432" version="1.1" xmlns:xlink="http://www.w3.org/1999/xlink" xmlns="http://www.w3.org/2000/svg">
  <path d="M427.758 191.922C439.703 203.862 439.703 223.22 427.758 235.165L239.979 422.95C234.01 428.908 226.184 431.899 218.357 431.899C210.532 431.899 202.707 428.92 196.738 422.95L8.9595 235.165C-2.9865 223.22 -2.9865 203.862 8.9595 191.922C20.9025 179.98 40.2655 179.98 52.2055 191.922L218.357 358.074L384.508 191.922C396.448 179.986 415.818 179.986 427.758 191.922L427.758 191.922ZM196.739 239.988C202.706 245.946 210.532 248.937 218.357 248.937C226.184 248.937 234.009 245.946 239.979 239.988L427.759 52.2093C439.703 40.2612 439.703 20.8973 427.759 8.95425C415.814 -2.98475 396.449 -2.98475 384.509 8.95425L218.357 175.106L52.2065 8.95425C40.2665 -2.98475 20.9035 -2.98475 8.96051 8.95425C-2.98549 20.8973 -2.98549 40.2612 8.96051 52.2093L196.739 239.988L196.739 239.988Z" transform="translate(-0.00050354004 0)" id="Shape" fill="#FFFFFF" fill-rule="evenodd" stroke="none" />
</svg>